<svg width="53" height="37" viewBox="0 0 53 37" fill="none" xmlns="http://www.w3.org/2000/svg">
<path d="M14.2403 15.6193C17.3123 15.6193 19.787 16.4939 21.6643 18.2433C23.5417 19.9926 24.4803 22.4459 24.4803 25.6033C24.4803 28.6753 23.435 31.2353 21.3443 33.2833C19.2963 35.2886 16.3523 36.2913 12.5123 36.2913C8.67234 36.2913 5.70701 35.0113 3.61634 32.4513C1.56834 29.8913 0.54434 26.5846 0.54434 22.5313C0.54434 18.6913 1.48301 15.3206 3.36034 12.4193C5.28034 9.47527 7.66967 7.0006 10.5283 4.99526C13.387 2.98993 16.2243 1.38993 19.0403 0.195267L21.3443 4.99526C19.5097 5.72059 17.6323 6.74459 15.7123 8.06726C13.835 9.38993 12.2563 10.8619 10.9763 12.4833C9.69634 14.1046 9.03501 15.7046 8.99234 17.2833C9.16301 17.0273 9.71767 16.6859 10.6563 16.2593C11.595 15.8326 12.7897 15.6193 14.2403 15.6193ZM42.7203 15.6193C45.7923 15.6193 48.267 16.4939 50.1443 18.2433C52.0217 19.9926 52.9603 22.4459 52.9603 25.6033C52.9603 28.6753 51.915 31.2353 49.8243 33.2833C47.7763 35.2886 44.8323 36.2913 40.9923 36.2913C37.1523 36.2913 34.187 35.0113 32.0963 32.4513C30.0483 29.8913 29.0243 26.5846 29.0243 22.5313C29.0243 18.6913 29.963 15.3206 31.8403 12.4193C33.7603 9.47527 36.1497 7.0006 39.0083 4.99526C41.867 2.98993 44.7043 1.38993 47.5203 0.195267L49.8243 4.99526C47.9897 5.72059 46.1123 6.74459 44.1923 8.06726C42.315 9.38993 40.7363 10.8619 39.4563 12.4833C38.1763 14.1046 37.515 15.7046 37.4723 17.2833C37.643 17.0273 38.1977 16.6859 39.1363 16.2593C40.075 15.8326 41.2697 15.6193 42.7203 15.6193Z" fill="white"/>
</svg>
