<svg width="53" height="37" viewBox="0 0 53 37" fill="none" xmlns="http://www.w3.org/2000/svg">
<path d="M14.192 16.12C17.264 16.12 19.7387 16.9947 21.616 18.744C23.4933 20.4933 24.432 22.9467 24.432 26.104C24.432 29.176 23.3867 31.736 21.296 33.784C19.248 35.7893 16.304 36.792 12.464 36.792C8.624 36.792 5.65867 35.512 3.568 32.952C1.52 30.392 0.496 27.0853 0.496 23.032C0.496 19.192 1.43467 15.8213 3.312 12.92C5.232 9.976 7.62133 7.50133 10.48 5.49599C13.3387 3.49066 16.176 1.89067 18.992 0.695999L21.296 5.49599C19.4613 6.22133 17.584 7.24533 15.664 8.56799C13.7867 9.89066 12.208 11.3627 10.928 12.984C9.648 14.6053 8.98667 16.2053 8.944 17.784C9.11467 17.528 9.66933 17.1867 10.608 16.76C11.5467 16.3333 12.7413 16.12 14.192 16.12ZM42.672 16.12C45.744 16.12 48.2187 16.9947 50.096 18.744C51.9733 20.4933 52.912 22.9467 52.912 26.104C52.912 29.176 51.8667 31.736 49.776 33.784C47.728 35.7893 44.784 36.792 40.944 36.792C37.104 36.792 34.1387 35.512 32.048 32.952C30 30.392 28.976 27.0853 28.976 23.032C28.976 19.192 29.9147 15.8213 31.792 12.92C33.712 9.976 36.1013 7.50133 38.96 5.49599C41.8187 3.49066 44.656 1.89067 47.472 0.695999L49.776 5.49599C47.9413 6.22133 46.064 7.24533 44.144 8.56799C42.2667 9.89066 40.688 11.3627 39.408 12.984C38.128 14.6053 37.4667 16.2053 37.424 17.784C37.5947 17.528 38.1493 17.1867 39.088 16.76C40.0267 16.3333 41.2213 16.12 42.672 16.12Z" fill="black"/>
</svg>
