<svg width="190" height="311" viewBox="0 0 190 311" fill="none" xmlns="http://www.w3.org/2000/svg">
<path d="M176.192 -219.95C192.91 -202.92 258.78 -166.599 256.44 -138.206C254.101 -109.813 169.826 -111.655 164.961 -83.6613C160.096 -55.6678 242.162 -31.1643 233.087 -3.83751C224.013 23.4893 126.06 19.4805 121.405 47.5073C116.75 75.534 209.507 101.731 210.745 130.691C211.983 159.651 130.318 158.222 127.347 186.515C124.376 214.809 205.347 239.139 196.483 266.499C187.62 293.859 101.241 291.684 84.8008 317.844C68.3608 344.004 127.487 364.874 117.571 392.068C107.655 419.261 41.8587 420.346 37.204 448.373C32.5492 476.399 83.1403 510.3 95.2288 526.596" stroke="url(#paint0_linear_252_29)" stroke-linecap="round"/>
<path d="M156.28 -209.459C173.334 -193.816 238.963 -161.987 238.139 -134.373C237.314 -106.759 155.612 -104.266 152.321 -76.9115C149.03 -49.5566 229.744 -29.993 222.344 -3.07012C214.943 23.8528 119.885 24.942 116.799 52.3184C113.714 79.6948 204.866 100.356 207.535 128.337C210.203 156.318 131.049 159.079 129.608 186.628C128.167 214.177 207.812 233.628 200.617 260.573C193.422 287.517 109.665 289.795 95.0728 315.961C80.4805 342.128 138.796 359.338 130.574 386.174C122.352 413.011 58.6911 417.4 55.6059 444.777C52.5208 472.153 103.232 502.414 115.765 517.581" stroke="url(#paint1_linear_252_29)" stroke-linecap="round"/>
<path d="M137.541 -197.945C154.833 -183.677 219.938 -156.212 220.54 -129.456C221.142 -102.7 142.228 -96.1457 140.432 -69.5152C138.635 -42.8847 217.711 -28.0506 211.917 -1.62959C206.122 24.7914 114.216 30.6647 112.619 57.3057C111.023 83.9466 200.253 99.3129 204.253 126.247C208.253 153.181 131.818 159.866 131.82 186.59C131.823 213.315 209.859 228.095 204.265 254.526C198.67 280.958 117.757 287.407 104.967 313.461C92.177 339.516 149.465 353.208 142.872 379.587C136.278 405.966 74.9137 413.44 73.3171 440.081C71.7204 466.722 122.314 493.426 135.208 507.464" stroke="url(#paint2_linear_252_29)" stroke-linecap="round"/>
<path d="M120.027 -185.502C137.461 -172.588 201.77 -149.344 203.707 -123.517C205.644 -97.6894 129.713 -87.3586 129.325 -61.5314C128.938 -35.7043 206.109 -25.3734 201.848 0.453696C197.586 26.2808 109.064 36.6117 108.87 62.4388C108.676 88.266 195.688 98.5968 200.918 124.424C206.148 150.251 132.618 160.582 133.974 186.409C135.33 212.236 211.494 222.567 207.426 248.394C203.359 274.221 125.49 284.552 114.449 310.379C103.408 336.207 159.465 346.537 154.429 372.365C149.393 398.192 90.4682 408.523 90.2745 434.35C90.0808 460.177 140.328 483.421 153.499 496.335" stroke="url(#paint3_linear_252_29)" stroke-linecap="round"/>
<path d="M103.782 -172.223C121.264 -160.639 184.521 -141.453 187.698 -116.619C190.874 -91.7854 118.097 -77.9711 119.029 -53.0195C119.962 -28.0678 194.981 -21.9992 192.174 3.14836C189.367 28.296 104.435 42.7473 105.555 67.6891C106.675 92.6309 191.193 98.2017 197.549 122.869C203.904 147.537 133.445 161.229 136.061 186.093C138.676 210.956 212.723 217.076 210.103 242.213C207.483 267.351 132.836 281.264 123.484 306.754C114.132 332.245 168.77 339.382 165.215 364.568C161.66 389.755 105.3 402.709 106.419 427.651C107.539 452.593 157.22 472.489 170.589 484.289" stroke="url(#paint4_linear_252_29)" stroke-linecap="round"/>
<path d="M88.8407 -158.21C106.283 -147.924 168.244 -132.623 172.561 -108.838C176.879 -85.054 107.406 -68.0568 109.566 -44.0457C111.726 -20.0346 184.366 -17.9742 182.93 6.41487C181.494 30.8039 100.333 49.0295 102.673 73.0216C105.013 97.0138 186.787 98.1143 194.161 121.577C201.536 145.04 134.292 161.803 138.07 185.644C141.848 209.485 213.553 211.644 212.297 236.014C211.041 260.384 139.769 277.57 132.041 302.621C124.312 327.671 177.354 331.792 175.198 356.256C173.043 380.721 119.356 396.059 121.696 420.051C124.036 444.043 172.944 460.717 186.43 471.419" stroke="url(#paint5_linear_252_29)" stroke-linecap="round"/>
<path d="M75.2381 -143.563C92.553 -134.538 152.992 -122.93 158.35 -100.244C163.708 -77.5589 97.6651 -57.6851 100.957 -34.6723C104.249 -11.6595 174.303 -13.3413 174.151 10.2169C173.999 33.7752 96.7639 55.4216 100.228 78.4071C103.692 101.393 182.493 98.3255 190.778 120.547C199.063 142.769 135.156 162.305 139.997 185.072C144.839 207.84 213.997 206.3 214.017 229.831C214.038 253.362 146.273 273.508 140.095 298.021C133.916 322.534 185.202 323.824 184.361 347.492C183.52 371.159 132.596 388.638 136.06 411.624C139.524 434.609 187.462 448.198 200.988 457.822" stroke="url(#paint6_linear_252_29)" stroke-linecap="round"/>
<path d="M62.9977 -128.381C80.1033 -120.576 138.809 -112.459 145.105 -90.9132C151.4 -69.3678 88.8925 -46.9279 93.2179 -24.9637C97.5433 -2.99953 164.825 -8.14732 165.866 14.5149C166.908 37.1772 93.7262 61.8858 98.2158 83.8151C102.705 105.744 178.329 98.8235 187.416 119.776C196.504 140.728 136.032 162.735 141.835 184.385C147.639 206.035 214.067 201.068 215.272 223.696C216.478 246.323 152.327 269.112 147.621 292.996C142.915 316.88 192.299 315.537 192.683 338.338C193.067 361.14 144.977 380.516 149.466 402.445C153.956 424.374 200.74 435.025 214.233 443.599" stroke="url(#paint7_linear_252_29)" stroke-linecap="round"/>
<path d="M52.1339 -112.767C68.9519 -106.133 125.731 -101.293 132.86 -80.9216C139.99 -60.5501 81.0976 -35.8573 86.3562 -14.9845C91.6149 5.88835 155.961 -2.4405 158.102 19.2679C160.242 40.9763 91.2148 68.3847 96.6294 89.2157C102.044 110.047 174.311 99.5956 184.091 119.257C193.872 138.918 136.913 163.093 143.575 183.59C150.237 204.086 213.772 195.975 216.068 217.641C218.365 239.308 157.913 264.419 154.596 287.589C151.279 310.76 198.631 306.985 200.147 328.86C201.664 350.736 156.461 371.761 161.876 392.592C167.29 413.423 212.749 421.296 226.137 428.849" stroke="url(#paint8_linear_252_29)" stroke-linecap="round"/>
<path d="M42.6593 -96.8236C59.1157 -91.3082 113.792 -89.5209 121.65 -70.3494C129.509 -51.1778 74.2905 -24.5462 80.3806 -4.79998C86.4707 14.9463 147.74 3.72859 150.883 24.4325C154.025 45.1365 89.2271 74.8806 95.4646 94.579C101.702 114.277 170.458 100.627 180.822 118.985C191.186 137.342 137.795 163.38 145.212 182.695C152.628 202.01 213.132 191.042 216.421 211.698C219.711 232.354 163.019 259.464 161.003 281.844C158.988 304.224 204.193 298.226 206.746 319.122C209.299 340.017 167.02 362.444 173.258 382.143C179.495 401.841 223.471 407.105 236.686 413.674" stroke="url(#paint9_linear_252_29)" stroke-linecap="round"/>
<path d="M34.5754 -80.6527C50.6012 -76.1997 103.017 -77.2316 111.499 -59.2782C119.982 -41.3247 68.4722 -13.0683 75.2909 5.52379C82.1096 24.1159 140.183 10.3074 144.229 29.9638C148.275 49.6203 87.7536 81.336 94.7109 99.8749C101.668 118.414 166.785 101.902 177.624 118.95C188.463 135.999 138.673 163.596 146.74 181.709C154.806 199.822 212.159 186.29 216.343 205.893C220.528 225.497 167.632 254.285 166.825 275.804C166.019 297.323 208.98 289.316 212.471 309.185C215.963 329.055 176.626 352.638 183.583 371.177C190.541 389.716 232.891 392.548 245.866 398.172" stroke="url(#paint10_linear_252_29)" stroke-linecap="round"/>
<path d="M27.8785 -64.3548C43.4094 -60.9035 93.4257 -64.5131 102.427 -47.7884C111.428 -31.0637 63.6404 -1.49432 71.0844 15.9237C78.5284 33.3417 133.31 17.2445 138.158 35.818C143.007 54.3916 86.7841 87.7165 94.3579 105.077C101.932 122.437 163.305 103.405 174.512 119.147C185.72 134.89 139.541 163.743 148.153 180.641C156.765 197.539 210.871 181.742 215.85 200.258C220.828 218.773 171.743 248.921 172.049 269.516C172.356 290.112 212.993 280.313 217.322 299.117C221.652 317.922 185.258 342.418 192.831 359.779C200.405 377.139 241 377.724 253.676 382.446" stroke="url(#paint11_linear_252_29)" stroke-linecap="round"/>
<path d="M22.5616 -48.0308C37.5387 -45.5167 85.0358 -51.4562 94.4516 -35.9633C103.867 -20.4703 59.7915 10.1037 67.7576 26.3353C75.7237 42.5669 127.139 24.4857 132.689 41.9485C138.239 59.4113 86.3097 93.9865 94.3966 110.157C102.483 126.327 160.036 105.118 171.506 119.565C182.975 134.011 140.398 163.822 149.451 179.5C158.504 195.177 209.291 177.416 214.962 194.817C220.633 212.218 175.349 243.408 176.67 263.025C177.991 282.643 216.238 271.271 221.304 288.98C226.371 306.689 192.902 331.859 200.989 348.029C209.076 364.199 247.802 362.728 260.121 366.597" stroke="url(#paint12_linear_252_29)" stroke-linecap="round"/>
<path d="M18.6031 -31.7777C32.9728 -30.1331 77.8501 -38.1495 87.5775 -23.8839C97.3048 -9.61823 56.9092 21.6569 65.2946 36.6973C73.68 51.7378 121.679 31.9785 127.827 48.3103C133.976 64.6421 86.3111 100.114 94.8083 115.09C103.306 130.066 156.985 107.026 168.614 120.194C180.242 133.362 141.234 163.837 150.625 178.296C160.017 192.756 207.434 173.332 213.695 189.599C219.955 205.866 178.441 237.787 180.676 256.379C182.91 274.971 218.719 262.249 224.42 278.839C230.122 295.429 199.545 321.035 208.042 336.011C216.54 350.987 253.298 347.658 265.207 350.723" stroke="url(#paint13_linear_252_29)" stroke-linecap="round"/>
<path d="M15.9803 -15.6946C29.6945 -14.8489 71.871 -24.6852 81.8086 -11.6351C91.7463 1.41503 54.978 33.0941 63.681 46.9461C72.384 60.798 116.938 39.6659 123.583 54.8541C130.228 70.0424 86.7723 106.064 95.5781 119.85C104.384 133.635 154.164 109.108 165.851 121.023C177.538 132.937 142.045 163.787 151.674 177.038C161.303 190.289 205.322 169.504 212.07 184.625C218.818 199.747 181.021 232.094 184.065 249.621C187.11 267.148 220.449 253.299 226.682 268.754C232.916 284.21 205.181 310.022 213.987 323.807C222.793 337.592 257.5 332.607 268.951 334.923" stroke="url(#paint14_linear_252_29)" stroke-linecap="round"/>
<path d="M14.6672 0.124939C27.6838 0.245089 67.0979 -11.152 77.1467 0.701655C87.1954 12.5553 53.9808 44.3489 62.9012 57.0223C71.8216 69.6957 112.925 47.4942 119.965 61.5339C127.005 75.5736 87.6784 111.808 96.6928 124.413C105.707 137.018 151.587 111.346 163.234 122.038C174.881 132.731 142.833 163.677 152.599 175.736C162.366 187.794 202.98 165.948 210.114 179.919C217.248 193.891 183.093 226.367 186.842 242.798C190.591 259.229 221.446 244.473 228.11 258.786C234.773 273.099 209.814 298.895 218.829 311.5C227.843 324.105 260.431 317.668 271.379 319.291" stroke="url(#paint15_linear_252_29)" stroke-linecap="round"/>
<path d="M14.6243 15.5888C26.9068 15.0587 63.5169 2.36139 73.5803 13.0444C83.6437 23.7275 53.8888 55.3554 62.9286 66.8674C71.9683 78.3794 109.637 55.4084 116.971 68.3019C124.305 81.1955 89.0051 117.313 98.1301 128.756C107.255 140.199 149.258 113.719 160.771 123.228C172.285 132.737 143.588 163.508 153.395 174.398C163.203 185.289 200.428 162.677 207.847 175.501C215.266 188.326 184.658 220.644 189.006 235.956C193.354 251.267 221.725 235.825 228.718 248.995C235.71 262.165 213.445 287.728 222.57 299.171C231.695 310.614 262.112 302.931 272.518 303.921" stroke="url(#paint16_linear_252_29)" stroke-linecap="round"/>
<path d="M15.8107 30.61C27.3288 29.5068 61.1127 15.7694 71.0974 25.3146C81.082 34.8597 54.6737 66.0521 63.7371 76.4267C72.8005 86.8014 107.074 63.3558 114.602 75.1131C122.13 86.8703 90.7309 122.556 99.8711 132.861C109.011 143.167 147.185 116.21 158.474 124.58C169.764 132.95 144.308 163.285 154.062 173.037C163.816 182.79 197.69 159.704 205.295 171.392C212.9 183.08 185.724 214.964 190.565 229.14C195.405 243.317 221.31 227.406 228.531 239.44C235.752 251.474 216.084 276.597 225.225 286.902C234.365 297.208 262.575 288.489 272.404 288.907" stroke="url(#paint17_linear_252_29)" stroke-linecap="round"/>
<path d="M18.1765 45.1021C28.9057 43.5041 59.8607 28.9854 69.6769 37.4318C79.493 45.8783 56.2995 76.3767 65.2938 85.645C74.2882 94.9132 105.225 71.2815 112.85 81.9194C120.474 92.5573 92.8292 127.507 101.892 136.707C110.955 145.907 145.371 118.796 156.351 126.078C167.331 133.36 144.987 163.01 154.598 171.662C164.208 180.313 194.789 157.038 202.482 167.607C210.175 178.177 186.297 209.36 191.525 222.395C196.752 235.43 220.224 219.263 227.575 230.175C234.926 241.087 217.745 265.572 226.808 274.772C235.871 283.972 261.854 274.425 271.076 274.334" stroke="url(#paint18_linear_252_29)" stroke-linecap="round"/>
<path d="M21.673 58.9851C31.5952 56.9716 59.7378 41.9273 69.2995 49.3204C78.8612 56.7134 58.7334 86.2725 67.5693 94.4717C76.4052 102.671 104.086 79.1336 111.712 88.6763C119.338 98.219 95.2786 132.145 104.175 140.277C113.071 148.409 143.824 121.459 154.414 127.71C165.004 133.961 145.627 162.687 155.007 170.282C164.387 177.876 191.753 154.688 199.44 164.164C207.126 173.639 186.394 203.87 191.903 215.764C197.412 227.658 218.5 211.443 225.884 221.254C233.268 231.066 218.451 254.727 227.347 262.859C236.244 270.991 259.995 260.823 268.586 260.288" stroke="url(#paint19_linear_252_29)" stroke-linecap="round"/>
<path d="M26.2389 72.18C35.3418 69.8307 60.7073 54.5124 69.9332 60.9033C79.159 67.2942 61.9311 95.6825 70.523 102.856C79.115 110.03 103.639 86.8586 111.175 95.3369C118.71 103.815 98.0487 136.444 106.693 143.552C115.338 150.661 142.546 124.175 152.67 129.457C162.794 134.739 146.221 162.319 155.288 168.905C164.355 175.492 188.605 152.66 196.193 161.073C203.782 169.486 186.025 198.527 191.712 209.288C197.399 220.05 216.165 203.989 223.489 212.728C230.813 221.467 218.223 244.128 226.868 251.237C235.513 258.345 257.043 247.763 264.984 246.848" stroke="url(#paint20_linear_252_29)" stroke-linecap="round"/>
<path d="M31.8098 84.6148C40.0875 82.0094 62.7297 66.6635 71.5429 72.109C80.3562 77.5545 65.8467 104.555 74.1134 110.753C82.3802 116.951 103.867 94.4066 111.223 101.858C118.579 109.309 101.109 140.385 109.422 146.52C117.734 152.655 141.535 126.926 151.122 131.306C160.71 135.686 146.765 161.91 155.442 167.543C164.118 173.177 185.369 150.958 192.77 158.347C200.172 165.736 185.207 193.363 190.969 203.009C196.731 212.654 213.254 196.942 220.427 204.644C227.601 212.347 217.09 233.844 225.403 239.979C233.715 246.114 253.051 235.319 260.326 234.092" stroke="url(#paint21_linear_252_29)" stroke-linecap="round"/>
<path d="M38.3191 96.2229C45.7717 93.4408 65.7623 78.3067 74.0913 82.8688C82.4203 87.4308 70.4335 112.844 78.2983 118.121C86.1631 123.398 104.751 101.729 111.842 108.198C118.933 114.666 104.432 143.951 112.336 149.168C120.239 154.385 140.792 129.691 149.779 133.24C158.766 136.79 147.259 161.464 155.472 166.205C163.684 170.946 182.071 149.587 189.201 155.996C196.331 162.405 183.957 188.413 189.695 196.966C195.432 205.519 209.804 190.344 216.74 197.05C223.676 203.757 215.086 223.94 222.99 229.157C230.893 234.374 248.075 223.565 254.677 222.093" stroke="url(#paint22_linear_252_29)" stroke-linecap="round"/>
<path d="M45.6951 106.941C52.3285 104.06 69.7568 89.3699 77.5353 93.1153C85.3138 96.8606 75.6408 120.502 83.0319 124.918C90.423 129.335 106.267 108.779 113.013 114.314C119.758 119.849 107.986 147.125 115.41 151.485C122.833 155.845 140.317 132.449 148.645 135.244C156.972 138.039 147.699 160.987 155.381 164.9C163.063 168.813 178.739 148.548 185.517 154.027C192.294 159.506 182.298 183.706 187.914 191.198C193.529 198.69 205.855 184.229 212.471 189.988C219.087 195.746 212.249 214.478 219.672 218.838C227.095 223.199 242.18 212.568 248.103 210.918" stroke="url(#paint23_linear_252_29)" stroke-linecap="round"/>
<path d="M53.8641 116.711C59.6903 113.809 74.6624 99.7852 81.8299 102.785C88.9973 105.785 81.4171 127.489 88.268 131.11C95.1188 134.731 108.391 115.51 114.714 120.166C121.037 124.823 111.742 149.892 118.62 153.462C125.497 157.031 140.109 135.18 147.725 137.299C155.341 139.419 148.088 160.481 155.176 163.636C162.264 166.791 175.399 147.839 181.749 152.444C188.099 157.049 180.254 179.271 185.654 185.739C191.054 192.208 201.451 178.631 207.668 183.495C213.886 188.359 208.622 205.516 215.499 209.086C222.377 212.655 235.433 202.39 240.679 200.628" stroke="url(#paint24_linear_252_29)" stroke-linecap="round"/>
<path d="M62.7414 125.481C67.7782 122.634 80.416 109.489 86.9179 111.818C93.4198 114.148 87.7007 133.766 93.9505 136.662C100.2 139.557 111.087 121.878 116.917 125.718C122.746 129.557 115.662 152.243 121.933 155.091C128.203 157.94 140.158 137.863 147.017 139.39C153.876 140.917 148.417 159.951 154.856 162.422C161.295 164.893 172.073 147.459 177.923 151.251C183.774 155.043 177.845 175.133 182.939 180.624C188.033 186.116 196.63 173.58 202.376 177.608C208.121 181.636 204.247 197.111 210.518 199.96C216.788 202.808 227.901 193.089 232.475 191.281" stroke="url(#paint25_linear_252_29)" stroke-linecap="round"/>
<path d="M72.2477 133.206C76.5185 130.488 86.9595 118.423 92.7475 120.16C98.5355 121.898 94.4366 139.302 100.03 141.546C105.624 143.791 114.327 127.844 119.597 130.932C124.867 134.02 119.715 154.167 125.325 156.369C130.935 158.57 140.461 140.48 146.524 141.5C152.588 142.521 148.69 159.402 154.429 161.266C160.169 163.131 168.788 147.403 174.074 150.449C179.36 153.495 175.099 171.321 179.802 175.886C184.504 180.451 191.442 169.103 196.647 172.36C201.852 175.617 199.175 189.316 204.785 191.518C210.395 193.72 219.66 184.718 223.575 182.929" stroke="url(#paint26_linear_252_29)" stroke-linecap="round"/>
<path d="M82.295 139.845C85.8288 137.327 94.2247 126.531 99.257 127.759C104.289 128.987 101.562 144.068 106.45 145.738C111.339 147.408 118.073 133.368 122.723 135.775C127.372 138.181 123.866 155.658 128.767 157.291C133.667 158.924 141.01 143.012 146.246 143.613C151.482 144.215 148.902 158.839 153.899 160.178C158.895 161.516 165.567 147.667 170.228 150.037C174.89 152.407 172.042 167.857 176.272 171.553C180.503 175.25 185.932 165.225 190.534 167.779C195.135 170.334 193.458 182.18 198.359 183.813C203.26 185.446 210.786 177.325 214.057 175.618" stroke="url(#paint27_linear_252_29)" stroke-linecap="round"/>
<path d="M92.7983 145.364C95.6293 143.115 102.145 133.764 106.387 134.566C110.628 135.369 109.016 148.038 113.157 149.215C117.298 150.391 122.29 138.413 126.264 140.213C130.238 142.014 128.083 156.71 132.232 157.856C136.382 159.001 141.798 145.439 146.182 145.711C150.565 145.983 149.057 158.266 153.273 159.162C157.489 160.058 162.438 148.242 166.42 150.011C170.403 151.78 168.707 164.761 172.388 167.653C176.07 170.544 180.151 161.965 184.092 163.89C188.032 165.815 187.154 175.747 191.303 176.892C195.453 178.037 201.362 170.951 204.009 169.387" stroke="url(#paint28_linear_252_29)" stroke-linecap="round"/>
<path d="M103.665 149.736C105.832 147.82 110.647 140.077 114.069 140.541C117.491 141.004 116.733 151.193 120.091 151.96C123.448 152.726 126.935 142.948 130.185 144.22C133.436 145.491 132.329 157.323 135.692 158.064C139.055 158.805 142.814 147.744 146.328 147.778C149.841 147.811 149.15 157.688 152.556 158.227C155.962 158.766 159.421 149.119 162.676 150.365C165.932 151.612 165.121 162.054 168.183 164.21C171.245 166.366 174.146 159.341 177.375 160.714C180.604 162.087 180.318 170.058 183.681 170.799C187.044 171.541 191.468 165.632 193.518 164.272" stroke="url(#paint29_linear_252_29)" stroke-linecap="round"/>
<path d="M114.804 152.938C116.352 151.418 119.654 145.43 122.235 145.643C124.817 145.855 124.649 153.517 127.194 153.959C129.739 154.401 131.966 146.941 134.451 147.766C136.935 148.59 136.571 157.495 139.118 157.919C141.666 158.342 144.048 149.909 146.681 149.797C149.313 149.684 149.183 157.108 151.756 157.378C154.328 157.648 156.539 150.287 159.027 151.093C161.514 151.899 161.316 159.752 163.694 161.246C166.073 162.741 167.97 157.366 170.442 158.267C172.914 159.168 173.013 165.15 175.561 165.573C178.109 165.996 181.19 161.397 182.672 160.298" stroke="url(#paint30_linear_252_29)" stroke-linecap="round"/>
<path d="M126.123 154.957C127.1 153.891 129.089 149.79 130.815 149.841C132.541 149.893 132.697 154.999 134.407 155.205C136.116 155.41 137.339 150.366 139.022 150.828C140.704 151.291 140.773 157.232 142.484 157.425C144.195 157.618 145.486 151.921 147.235 151.754C148.984 151.587 149.156 156.534 150.878 156.624C152.6 156.714 153.815 151.737 155.5 152.186C157.184 152.636 157.326 157.871 158.961 158.783C160.597 159.695 161.672 156.05 163.35 156.564C165.027 157.078 165.301 161.057 167.012 161.249C168.723 161.442 170.615 158.273 171.563 157.489" stroke="url(#paint31_linear_252_29)" stroke-linecap="round"/>
<path d="M137.528 155.785C137.988 155.227 138.874 153.127 139.737 153.107C140.601 153.088 140.812 155.633 141.671 155.691C142.53 155.749 143.009 153.198 143.861 153.385C144.713 153.572 144.903 156.537 145.762 156.589C146.621 156.64 147.117 153.762 147.986 153.633C148.855 153.504 149.07 155.969 149.933 155.969C150.795 155.969 151.271 153.452 152.124 153.632C152.977 153.813 153.185 156.423 154.025 156.835C154.866 157.248 155.307 155.4 156.158 155.613C157.009 155.825 157.25 157.805 158.11 157.856C158.969 157.908 159.83 156.276 160.283 155.86" stroke="url(#paint32_linear_252_29)" stroke-linecap="round"/>
<defs>
<linearGradient id="paint0_linear_252_29" x1="-5595.13" y1="36834.4" x2="-18340.3" y2="34815.8" gradientUnits="userSpaceOnUse">
<stop stop-color="#69FFB7"/>
<stop offset="0.0001" stop-color="#5BD8FF"/>
</linearGradient>
<linearGradient id="paint1_linear_252_29" x1="-3551.97" y1="35965.7" x2="-15996.5" y2="34657.7" gradientUnits="userSpaceOnUse">
<stop stop-color="#69FFB7"/>
<stop offset="0.0001" stop-color="#5BD8FF"/>
</linearGradient>
<linearGradient id="paint2_linear_252_29" x1="-1615.81" y1="34986.7" x2="-13721.2" y2="34352.3" gradientUnits="userSpaceOnUse">
<stop stop-color="#69FFB7"/>
<stop offset="0.0001" stop-color="#5BD8FF"/>
</linearGradient>
<linearGradient id="paint3_linear_252_29" x1="207.584" y1="33906.3" x2="-11523.4" y2="33906.3" gradientUnits="userSpaceOnUse">
<stop stop-color="#69FFB7"/>
<stop offset="0.0001" stop-color="#5BD8FF"/>
</linearGradient>
<linearGradient id="paint4_linear_252_29" x1="1913.06" y1="32733.6" x2="-9411.34" y2="33327.1" gradientUnits="userSpaceOnUse">
<stop stop-color="#69FFB7"/>
<stop offset="0.0001" stop-color="#5BD8FF"/>
</linearGradient>
<linearGradient id="paint5_linear_252_29" x1="3496.11" y1="31478" x2="-7392.83" y2="32622.4" gradientUnits="userSpaceOnUse">
<stop stop-color="#69FFB7"/>
<stop offset="0.0001" stop-color="#5BD8FF"/>
</linearGradient>
<linearGradient id="paint6_linear_252_29" x1="4952.89" y1="30149" x2="-5475" y2="31800.6" gradientUnits="userSpaceOnUse">
<stop stop-color="#69FFB7"/>
<stop offset="0.0001" stop-color="#5BD8FF"/>
</linearGradient>
<linearGradient id="paint7_linear_252_29" x1="6280.23" y1="28756.4" x2="-3664.45" y2="30870.2" gradientUnits="userSpaceOnUse">
<stop stop-color="#69FFB7"/>
<stop offset="0.0001" stop-color="#5BD8FF"/>
</linearGradient>
<linearGradient id="paint8_linear_252_29" x1="7475.62" y1="27310.2" x2="-1967.09" y2="29840.3" gradientUnits="userSpaceOnUse">
<stop stop-color="#69FFB7"/>
<stop offset="0.0001" stop-color="#5BD8FF"/>
</linearGradient>
<linearGradient id="paint9_linear_252_29" x1="8537.24" y1="25820.1" x2="-388.218" y2="28720.2" gradientUnits="userSpaceOnUse">
<stop stop-color="#69FFB7"/>
<stop offset="0.0001" stop-color="#5BD8FF"/>
</linearGradient>
<linearGradient id="paint10_linear_252_29" x1="9463.93" y1="24296.3" x2="1067.54" y2="27519.4" gradientUnits="userSpaceOnUse">
<stop stop-color="#69FFB7"/>
<stop offset="0.0001" stop-color="#5BD8FF"/>
</linearGradient>
<linearGradient id="paint11_linear_252_29" x1="10255.2" y1="22748.8" x2="2396.25" y2="26247.8" gradientUnits="userSpaceOnUse">
<stop stop-color="#69FFB7"/>
<stop offset="0.0001" stop-color="#5BD8FF"/>
</linearGradient>
<linearGradient id="paint12_linear_252_29" x1="10911.3" y1="21187.4" x2="3594.66" y2="24915.4" gradientUnits="userSpaceOnUse">
<stop stop-color="#69FFB7"/>
<stop offset="0.0001" stop-color="#5BD8FF"/>
</linearGradient>
<linearGradient id="paint13_linear_252_29" x1="11433.1" y1="19622" x2="4660.21" y2="23532.3" gradientUnits="userSpaceOnUse">
<stop stop-color="#69FFB7"/>
<stop offset="0.0001" stop-color="#5BD8FF"/>
</linearGradient>
<linearGradient id="paint14_linear_252_29" x1="11822.1" y1="18062.2" x2="5591.05" y2="22108.7" gradientUnits="userSpaceOnUse">
<stop stop-color="#69FFB7"/>
<stop offset="0.0001" stop-color="#5BD8FF"/>
</linearGradient>
<linearGradient id="paint15_linear_252_29" x1="12080.4" y1="16517.8" x2="6386.03" y2="20654.9" gradientUnits="userSpaceOnUse">
<stop stop-color="#69FFB7"/>
<stop offset="0.0001" stop-color="#5BD8FF"/>
</linearGradient>
<linearGradient id="paint16_linear_252_29" x1="12210.8" y1="14997.8" x2="7044.71" y2="19181.3" gradientUnits="userSpaceOnUse">
<stop stop-color="#69FFB7"/>
<stop offset="0.0001" stop-color="#5BD8FF"/>
</linearGradient>
<linearGradient id="paint17_linear_252_29" x1="12216.9" y1="13511.4" x2="7567.35" y2="17697.9" gradientUnits="userSpaceOnUse">
<stop stop-color="#69FFB7"/>
<stop offset="0.0001" stop-color="#5BD8FF"/>
</linearGradient>
<linearGradient id="paint18_linear_252_29" x1="12102.4" y1="12067.4" x2="7954.89" y2="16215" gradientUnits="userSpaceOnUse">
<stop stop-color="#69FFB7"/>
<stop offset="0.0001" stop-color="#5BD8FF"/>
</linearGradient>
<linearGradient id="paint19_linear_252_29" x1="11872.1" y1="10674.2" x2="8208.96" y2="14742.5" gradientUnits="userSpaceOnUse">
<stop stop-color="#69FFB7"/>
<stop offset="0.0001" stop-color="#5BD8FF"/>
</linearGradient>
<linearGradient id="paint20_linear_252_29" x1="11531" y1="9339.72" x2="8331.89" y2="13290.3" gradientUnits="userSpaceOnUse">
<stop stop-color="#69FFB7"/>
<stop offset="0.0001" stop-color="#5BD8FF"/>
</linearGradient>
<linearGradient id="paint21_linear_252_29" x1="11084.7" y1="8071.75" x2="8326.62" y2="11868" gradientUnits="userSpaceOnUse">
<stop stop-color="#69FFB7"/>
<stop offset="0.0001" stop-color="#5BD8FF"/>
</linearGradient>
<linearGradient id="paint22_linear_252_29" x1="10539.5" y1="6877.47" x2="8196.78" y2="10484.9" gradientUnits="userSpaceOnUse">
<stop stop-color="#69FFB7"/>
<stop offset="0.0001" stop-color="#5BD8FF"/>
</linearGradient>
<linearGradient id="paint23_linear_252_29" x1="9901.75" y1="5763.64" x2="7946.59" y2="9150.08" gradientUnits="userSpaceOnUse">
<stop stop-color="#69FFB7"/>
<stop offset="0.0001" stop-color="#5BD8FF"/>
</linearGradient>
<linearGradient id="paint24_linear_252_29" x1="9178.6" y1="4736.52" x2="7580.88" y2="7872.23" gradientUnits="userSpaceOnUse">
<stop stop-color="#69FFB7"/>
<stop offset="0.0001" stop-color="#5BD8FF"/>
</linearGradient>
<linearGradient id="paint25_linear_252_29" x1="8377.42" y1="3801.86" x2="7105.04" y2="6659.66" gradientUnits="userSpaceOnUse">
<stop stop-color="#69FFB7"/>
<stop offset="0.0001" stop-color="#5BD8FF"/>
</linearGradient>
<linearGradient id="paint26_linear_252_29" x1="7505.98" y1="2964.86" x2="6525.04" y2="5520.29" gradientUnits="userSpaceOnUse">
<stop stop-color="#69FFB7"/>
<stop offset="0.0001" stop-color="#5BD8FF"/>
</linearGradient>
<linearGradient id="paint27_linear_252_29" x1="6572.36" y1="2230.18" x2="5847.34" y2="4461.55" gradientUnits="userSpaceOnUse">
<stop stop-color="#69FFB7"/>
<stop offset="0.0001" stop-color="#5BD8FF"/>
</linearGradient>
<linearGradient id="paint28_linear_252_29" x1="5584.94" y1="1601.87" x2="5078.9" y2="3490.41" gradientUnits="userSpaceOnUse">
<stop stop-color="#69FFB7"/>
<stop offset="0.0001" stop-color="#5BD8FF"/>
</linearGradient>
<linearGradient id="paint29_linear_252_29" x1="4552.34" y1="1083.4" x2="4227.14" y2="2613.34" gradientUnits="userSpaceOnUse">
<stop stop-color="#69FFB7"/>
<stop offset="0.0001" stop-color="#5BD8FF"/>
</linearGradient>
<linearGradient id="paint30_linear_252_29" x1="3483.38" y1="677.604" x2="3299.87" y2="1836.26" gradientUnits="userSpaceOnUse">
<stop stop-color="#69FFB7"/>
<stop offset="0.0001" stop-color="#5BD8FF"/>
</linearGradient>
<linearGradient id="paint31_linear_252_29" x1="2387.07" y1="386.723" x2="2305.32" y2="1164.5" gradientUnits="userSpaceOnUse">
<stop stop-color="#69FFB7"/>
<stop offset="0.0001" stop-color="#5BD8FF"/>
</linearGradient>
<linearGradient id="paint32_linear_252_29" x1="1272.52" y1="212.344" x2="1252.05" y2="602.841" gradientUnits="userSpaceOnUse">
<stop stop-color="#69FFB7"/>
<stop offset="0.0001" stop-color="#5BD8FF"/>
</linearGradient>
</defs>
</svg>
