<svg width="23" height="22" viewBox="0 0 23 22" fill="none" xmlns="http://www.w3.org/2000/svg">
<path d="M7.47484 1.83337H15.5248C18.5915 1.83337 21.0832 4.21671 21.0832 7.15004V14.85C21.0832 16.2601 20.4976 17.6124 19.4552 18.6095C18.4128 19.6066 16.999 20.1667 15.5248 20.1667H7.47484C4.40817 20.1667 1.9165 17.7834 1.9165 14.85V7.15004C1.9165 5.73997 2.50211 4.38766 3.5445 3.39059C4.58689 2.39352 6.00068 1.83337 7.47484 1.83337ZM7.28317 3.66671C6.36817 3.66671 5.49065 4.01438 4.84365 4.63326C4.19665 5.25213 3.83317 6.09149 3.83317 6.96671V15.0334C3.83317 16.8575 5.37609 18.3334 7.28317 18.3334H15.7165C16.6315 18.3334 17.509 17.9857 18.156 17.3668C18.803 16.748 19.1665 15.9086 19.1665 15.0334V6.96671C19.1665 5.14254 17.6236 3.66671 15.7165 3.66671H7.28317ZM16.5311 5.04171C16.8488 5.04171 17.1535 5.16243 17.3781 5.37731C17.6028 5.5922 17.729 5.88365 17.729 6.18754C17.729 6.49143 17.6028 6.78288 17.3781 6.99777C17.1535 7.21265 16.8488 7.33337 16.5311 7.33337C16.2134 7.33337 15.9087 7.21265 15.684 6.99777C15.4594 6.78288 15.3332 6.49143 15.3332 6.18754C15.3332 5.88365 15.4594 5.5922 15.684 5.37731C15.9087 5.16243 16.2134 5.04171 16.5311 5.04171ZM11.4998 6.41671C12.7707 6.41671 13.9894 6.89959 14.8881 7.75913C15.7867 8.61868 16.2915 9.78446 16.2915 11C16.2915 12.2156 15.7867 13.3814 14.8881 14.2409C13.9894 15.1005 12.7707 15.5834 11.4998 15.5834C10.229 15.5834 9.01023 15.1005 8.11162 14.2409C7.21301 13.3814 6.70817 12.2156 6.70817 11C6.70817 9.78446 7.21301 8.61868 8.11162 7.75913C9.01023 6.89959 10.229 6.41671 11.4998 6.41671ZM11.4998 8.25004C10.7373 8.25004 10.0061 8.53977 9.4669 9.0555C8.92774 9.57122 8.62484 10.2707 8.62484 11C8.62484 11.7294 8.92774 12.4289 9.4669 12.9446C10.0061 13.4603 10.7373 13.75 11.4998 13.75C12.2623 13.75 12.9936 13.4603 13.5328 12.9446C14.0719 12.4289 14.3748 11.7294 14.3748 11C14.3748 10.2707 14.0719 9.57122 13.5328 9.0555C12.9936 8.53977 12.2623 8.25004 11.4998 8.25004Z" fill="url(#paint0_linear_504_450)"/>
<defs>
<linearGradient id="paint0_linear_504_450" x1="11.4998" y1="1.83337" x2="11.4998" y2="20.1667" gradientUnits="userSpaceOnUse">
<stop stop-color="#5BD8FF"/>
<stop offset="1" stop-color="#69FFB7"/>
</linearGradient>
</defs>
</svg>
