<svg width="23" height="22" viewBox="0 0 23 22" fill="none" xmlns="http://www.w3.org/2000/svg">
<g clip-path="url(#clip0_504_481)">
<path d="M5.01251 2.44553C5.01218 3.0938 4.74781 3.71539 4.27756 4.17356C3.80731 4.63173 3.1697 4.88894 2.505 4.88862C1.8403 4.88829 1.20296 4.63046 0.733179 4.17183C0.2634 3.71321 -0.000332036 3.09136 3.13735e-07 2.44309C0.000332664 1.79482 0.264702 1.17323 0.734952 0.715057C1.2052 0.25689 1.84281 -0.00032383 2.50751 3.0598e-07C3.17221 0.000324441 3.80955 0.25816 4.27933 0.716786C4.74911 1.17541 5.01284 1.79726 5.01251 2.44553ZM5.0877 6.69863H0.0751879V22H5.0877V6.69863ZM13.0075 6.69863H8.02002V22H12.9573V13.9704C12.9573 9.49736 18.9348 9.08183 18.9348 13.9704V22H23.8846V12.3083C23.8846 4.76762 15.0375 5.04872 12.9573 8.75185L13.0075 6.69863Z" fill="white"/>
</g>
<defs>
<clipPath id="clip0_504_481">
<rect width="23" height="22" fill="white"/>
</clipPath>
</defs>
</svg>
