<svg width="274" height="51" viewBox="0 0 274 51" fill="none" xmlns="http://www.w3.org/2000/svg">
<path d="M36.9066 47.9984C34.1208 49.4878 28.889 50.6387 23.1136 50.6387C8.64112 50.6387 0.419678 40.2808 0.419678 25.3193C0.419678 10.2902 9.32057 0 24.1328 0C29.2287 0 34.1887 1.15088 36.7027 2.64025L33.1695 11.6442C31.2671 10.561 28.3454 9.74862 24.6084 9.74862C17.4061 9.74862 11.9705 14.6906 11.9705 25.2516C11.9705 35.7449 16.9305 41.0255 22.2982 41.0255C24.0648 41.0255 25.3558 40.7547 26.1032 40.4839V28.9074H20.1919V20.3096H36.9066V47.9984Z" fill="white"/>
<path d="M69.9818 49.8263H44.8419V0.812387H56.3927V40.2131H69.9818V49.8263Z" fill="white"/>
<path d="M111.531 25.3193C111.531 39.7392 105.483 50.6387 92.37 50.6387C79.2564 50.6387 73.2092 39.7392 73.2092 25.3193C73.2092 10.8995 79.2564 0 92.37 0C105.483 0 111.531 10.8995 111.531 25.3193ZM99.9799 25.3193C99.9799 15.8415 97.3979 10.0871 92.37 10.0871C87.342 10.0871 84.76 15.8415 84.76 25.3193C84.76 34.7972 87.342 40.5516 92.37 40.5516C97.3979 40.5516 99.9799 34.7972 99.9799 25.3193Z" fill="white"/>
<path d="M174.311 0.812387L162.217 49.8263H151.141L145.434 24.71C144.687 21.3928 144.211 17.534 144.211 17.534H144.075C144.075 17.534 143.599 21.3928 142.852 24.71L137.145 49.8263H126.069L113.975 0.812387H125.662L130.962 28.9751C131.505 31.8861 131.981 35.5419 131.981 35.5419H132.117C132.117 35.5419 132.524 31.8861 133.136 28.9751L139.387 0.812387H148.899L155.15 28.9751C155.762 31.8861 156.169 35.5419 156.169 35.5419H156.305C156.305 35.5419 156.781 31.8861 157.325 28.9751L162.624 0.812387H174.311Z" fill="white"/>
<path fill-rule="evenodd" clip-rule="evenodd" d="M234.981 0.000448573H218.796V35.0429C218.796 38.5587 216.253 40.6279 213.012 40.6279C209.771 40.6279 207.228 38.5587 207.228 35.0429V0.000448573H195.526V34.8993C195.526 45.0441 203.031 50.6291 213.012 50.6291V50.6387C222.993 50.6387 230.498 45.0441 230.498 34.9088V17.9146H224.639L234.981 0.000448573ZM238.602 50.6387H250.054L250.054 31.3069C250.943 31.4506 252.597 31.5847 253.973 31.5847L253.992 31.5943C267.138 31.5943 273.677 24.7639 273.677 15.5195C273.677 9.68551 272.788 -0.0761889 254.346 0.000448553C250.113 0.0207446 244.408 0.0123738 239.863 0.00570368C237.972 0.0029293 236.282 0.000449169 234.982 0.000448573L245.325 17.9146H238.602V50.6387ZM250.054 8.48805C250.952 8.21024 252.396 7.93243 253.839 7.93243V7.94201C259.346 7.94201 262.166 10.3561 262.166 15.5291C262.166 20.2136 259.279 22.8384 253.428 22.8384C252.119 22.8384 250.809 22.6947 250.054 22.5606V8.48805Z" fill="url(#paint0_linear_312_414)"/>
<defs>
<linearGradient id="paint0_linear_312_414" x1="234.602" y1="0" x2="234.602" y2="50.6387" gradientUnits="userSpaceOnUse">
<stop stop-color="#5BD8FF"/>
<stop offset="1" stop-color="#69FFB7"/>
</linearGradient>
</defs>
</svg>
